<svg xmlns="http://www.w3.org/2000/svg" width="103.947" height="63" viewBox="0 0 103.947 63"><defs><style>.a{fill:#fff;}</style></defs><g transform="translate(-503.577 -257.333)"><g transform="translate(503.714 275.289)"><path class="a" d="M525.076,296.576V331.7h-9.483V296.576H503.8v-8.422h33.065v8.422Z" transform="translate(-503.802 -287.405)"/><path class="a" d="M582.395,331.964a21.588,21.588,0,0,1-7.985-1.4,15.822,15.822,0,0,1-6.052-4.18,19.215,19.215,0,0,1-3.868-6.925,30.921,30.921,0,0,1-1.372-9.7,31.908,31.908,0,0,1,1.372-9.764,20.423,20.423,0,0,1,3.868-7.175,16.113,16.113,0,0,1,6.052-4.4,20.389,20.389,0,0,1,7.985-1.5,18.494,18.494,0,0,1,9.981,2.465,17,17,0,0,1,6.3,7.768l-8.173,4.243a9.736,9.736,0,0,0-2.714-4.4,7.832,7.832,0,0,0-5.4-1.653,8.725,8.725,0,0,0-6.707,2.714q-2.526,2.714-2.527,7.891v6.988q0,5.18,2.527,7.892a8.727,8.727,0,0,0,6.707,2.714,7.974,7.974,0,0,0,5.583-1.9,11.573,11.573,0,0,0,3.088-4.586l7.736,4.492a19.364,19.364,0,0,1-6.395,7.7A17.334,17.334,0,0,1,582.395,331.964Z" transform="translate(-527.12 -286.92)"/><path class="a" d="M656.228,288.154V319.1a14.838,14.838,0,0,1-.966,5.459,11.064,11.064,0,0,1-2.839,4.18,13.372,13.372,0,0,1-4.523,2.682,17.486,17.486,0,0,1-6.02.967,17.068,17.068,0,0,1-5.708-.873,12.3,12.3,0,0,1-4.243-2.5,13.132,13.132,0,0,1-2.9-3.868,17.064,17.064,0,0,1-1.559-4.99l8.859-1.747q1.06,5.678,5.428,5.677a5.107,5.107,0,0,0,3.524-1.31,5.257,5.257,0,0,0,1.466-4.118v-22.9H633.519v-7.612Z" transform="translate(-552.417 -287.405)"/></g><g transform="translate(503.577 257.333)"><path class="a" d="M505.279,265.316l-1.7-7.2h1.186l.733,3.467.505,2.393h.031l.578-2.393.856-3.467h1.3l.846,3.467.567,2.383h.031l.526-2.383.753-3.467h1.145l-1.775,7.2h-1.31l-.918-3.724L508.1,259.4h-.021l-.547,2.187-.939,3.724Z" transform="translate(-503.577 -257.64)"/><path class="a" d="M521.853,266.55a2.556,2.556,0,0,1-1.017-.2,2.12,2.12,0,0,1-.779-.562,2.571,2.571,0,0,1-.5-.887,3.929,3.929,0,0,1,0-2.321,2.57,2.57,0,0,1,.5-.887,2.136,2.136,0,0,1,.779-.563,2.74,2.74,0,0,1,2.032,0,2.143,2.143,0,0,1,.779.563,2.591,2.591,0,0,1,.5.887,3.928,3.928,0,0,1,0,2.321,2.592,2.592,0,0,1-.5.887,2.128,2.128,0,0,1-.779.562A2.555,2.555,0,0,1,521.853,266.55Zm0-.938a1.25,1.25,0,0,0,.929-.354,1.451,1.451,0,0,0,.351-1.061v-.9a1.451,1.451,0,0,0-.351-1.061,1.394,1.394,0,0,0-1.857,0,1.449,1.449,0,0,0-.351,1.061v.9a1.448,1.448,0,0,0,.351,1.061A1.248,1.248,0,0,0,521.853,265.612Z" transform="translate(-509.792 -258.75)"/><path class="a" d="M529.485,266.506v-5.364h1.125v1.031h.052a1.445,1.445,0,0,1,.475-.722,1.488,1.488,0,0,1,1-.309h.3v1.083h-.444a1.992,1.992,0,0,0-1.027.217.7.7,0,0,0-.356.64v3.425Z" transform="translate(-513.762 -258.83)"/><path class="a" d="M537.056,265.036a1.146,1.146,0,0,1-.861-.294,1.131,1.131,0,0,1-.283-.821V257.4h1.125v6.716h.742v.918Z" transform="translate(-516.288 -257.36)"/><path class="a" d="M543.836,264.149h-.052a1.5,1.5,0,0,1-.572.743,1.632,1.632,0,0,1-.934.268,1.862,1.862,0,0,1-1.579-.737,4.119,4.119,0,0,1,0-4.137,1.862,1.862,0,0,1,1.579-.737,1.653,1.653,0,0,1,.934.263,1.467,1.467,0,0,1,.572.748h.052V257.4h1.125v7.635h-1.125Zm-1.217.041a1.441,1.441,0,0,0,.867-.252.782.782,0,0,0,.351-.666v-1.836a.782.782,0,0,0-.351-.665,1.441,1.441,0,0,0-.867-.252,1.22,1.22,0,0,0-.939.376,1.4,1.4,0,0,0-.351,1v.929a1.4,1.4,0,0,0,.351,1A1.22,1.22,0,0,0,542.619,264.19Z" transform="translate(-517.952 -257.36)"/><path class="a" d="M557.208,265.36a2.746,2.746,0,0,1-2.218-.954,4.191,4.191,0,0,1-.8-2.77,5.616,5.616,0,0,1,.206-1.6,3.275,3.275,0,0,1,.6-1.166,2.5,2.5,0,0,1,.954-.717,3.167,3.167,0,0,1,1.264-.242,2.848,2.848,0,0,1,1.573.408,2.714,2.714,0,0,1,1,1.211l-.979.536a1.785,1.785,0,0,0-.573-.82,1.6,1.6,0,0,0-1.016-.3,1.615,1.615,0,0,0-1.311.57,2.39,2.39,0,0,0-.474,1.574v1.1a2.388,2.388,0,0,0,.474,1.574,1.812,1.812,0,0,0,2.368.234,1.993,1.993,0,0,0,.6-.861l.94.567a2.9,2.9,0,0,1-1.011,1.222A2.772,2.772,0,0,1,557.208,265.36Z" transform="translate(-523.472 -257.561)"/><path class="a" d="M566.414,265.036a1.146,1.146,0,0,1-.861-.294,1.131,1.131,0,0,1-.283-.821V257.4h1.125v6.716h.742v.918Z" transform="translate(-527.829 -257.36)"/><path class="a" d="M573.7,266.426a.888.888,0,0,1-.681-.253,1.128,1.128,0,0,1-.289-.645h-.052a1.318,1.318,0,0,1-.567.763,1.853,1.853,0,0,1-1,.258,1.777,1.777,0,0,1-1.284-.433,1.544,1.544,0,0,1-.449-1.166,1.369,1.369,0,0,1,.583-1.207,3.007,3.007,0,0,1,1.707-.4h.97v-.454a1.031,1.031,0,0,0-.268-.763,1.14,1.14,0,0,0-.836-.268,1.335,1.335,0,0,0-.774.206,1.85,1.85,0,0,0-.505.526l-.671-.609a2.153,2.153,0,0,1,.753-.748,2.425,2.425,0,0,1,1.269-.294,2.366,2.366,0,0,1,1.6.484,1.748,1.748,0,0,1,.557,1.393v2.693h.568v.918Zm-2.27-.733a1.506,1.506,0,0,0,.867-.232.72.72,0,0,0,.341-.624v-.774h-.949q-1.166,0-1.166.722v.186a.632.632,0,0,0,.242.542A1.1,1.1,0,0,0,571.435,265.694Z" transform="translate(-529.446 -258.75)"/><path class="a" d="M580.671,266.55a2.757,2.757,0,0,1-1.279-.268,2.813,2.813,0,0,1-.9-.743l.722-.66a2.316,2.316,0,0,0,.666.562,1.737,1.737,0,0,0,.851.2,1.183,1.183,0,0,0,.738-.191.639.639,0,0,0,.242-.532.616.616,0,0,0-.17-.438.962.962,0,0,0-.594-.232l-.5-.062a2.532,2.532,0,0,1-1.294-.479,1.349,1.349,0,0,1-.47-1.12,1.6,1.6,0,0,1,.144-.7,1.46,1.46,0,0,1,.408-.516,1.884,1.884,0,0,1,.629-.325,2.739,2.739,0,0,1,.81-.113,2.683,2.683,0,0,1,1.182.226,2.715,2.715,0,0,1,.82.63l-.691.66a1.82,1.82,0,0,0-.541-.428,1.6,1.6,0,0,0-.769-.18,1.057,1.057,0,0,0-.686.185.6.6,0,0,0-.222.486.556.556,0,0,0,.2.464,1.4,1.4,0,0,0,.629.227l.5.062a2.376,2.376,0,0,1,1.3.521,1.363,1.363,0,0,1,.407,1.037,1.628,1.628,0,0,1-.149.706,1.552,1.552,0,0,1-.428.541,2,2,0,0,1-.671.351A2.886,2.886,0,0,1,580.671,266.55Z" transform="translate(-533.028 -258.75)"/><path class="a" d="M588.984,266.55a2.757,2.757,0,0,1-1.279-.268,2.813,2.813,0,0,1-.9-.743l.722-.66a2.316,2.316,0,0,0,.666.562,1.737,1.737,0,0,0,.851.2,1.183,1.183,0,0,0,.738-.191.638.638,0,0,0,.242-.532.616.616,0,0,0-.17-.438.962.962,0,0,0-.594-.232l-.5-.062a2.532,2.532,0,0,1-1.294-.479,1.349,1.349,0,0,1-.47-1.12,1.6,1.6,0,0,1,.144-.7,1.461,1.461,0,0,1,.408-.516,1.885,1.885,0,0,1,.629-.325,2.738,2.738,0,0,1,.81-.113,2.424,2.424,0,0,1,2,.856l-.691.66a1.82,1.82,0,0,0-.541-.428,1.6,1.6,0,0,0-.769-.18,1.057,1.057,0,0,0-.686.185.6.6,0,0,0-.222.486.556.556,0,0,0,.2.464,1.4,1.4,0,0,0,.629.227l.5.062a2.376,2.376,0,0,1,1.3.521,1.363,1.363,0,0,1,.407,1.037,1.627,1.627,0,0,1-.149.706,1.553,1.553,0,0,1-.429.541,1.994,1.994,0,0,1-.671.351A2.886,2.886,0,0,1,588.984,266.55Z" transform="translate(-536.296 -258.75)"/><path class="a" d="M599.965,265.316v-7.2h4.611v1.032h-3.445v2h3.127v1.032h-3.127v2.1h3.445v1.032Z" transform="translate(-541.469 -257.64)"/><path class="a" d="M612.99,264.149h-.052a1.491,1.491,0,0,1-.572.743,1.631,1.631,0,0,1-.933.268,1.864,1.864,0,0,1-1.579-.737,4.119,4.119,0,0,1,0-4.137,1.864,1.864,0,0,1,1.579-.737,1.652,1.652,0,0,1,.933.263,1.46,1.46,0,0,1,.572.748h.052V257.4h1.125v7.635H612.99Zm-1.217.041a1.441,1.441,0,0,0,.867-.252.782.782,0,0,0,.351-.666v-1.836a.782.782,0,0,0-.351-.665,1.441,1.441,0,0,0-.867-.252,1.219,1.219,0,0,0-.938.376,1.4,1.4,0,0,0-.351,1v.929a1.4,1.4,0,0,0,.351,1A1.219,1.219,0,0,0,611.773,264.19Z" transform="translate(-545.137 -257.36)"/><path class="a" d="M623.019,265.62h-.041a2.016,2.016,0,0,1-.191.381,1.288,1.288,0,0,1-.3.325,1.429,1.429,0,0,1-.433.222,1.877,1.877,0,0,1-.583.083,1.611,1.611,0,0,1-1.3-.536,2.3,2.3,0,0,1-.459-1.537v-3.415h1.125v3.27q0,1.249,1.032,1.248a1.6,1.6,0,0,0,.423-.056,1.151,1.151,0,0,0,.367-.171.863.863,0,0,0,.258-.289.835.835,0,0,0,.1-.412v-3.59h1.125v5.364h-1.125Z" transform="translate(-549.234 -258.83)"/><path class="a" d="M631.418,266.55a2.575,2.575,0,0,1-1.032-.2,2.035,2.035,0,0,1-.763-.562,2.555,2.555,0,0,1-.475-.887,4.177,4.177,0,0,1,0-2.321,2.555,2.555,0,0,1,.475-.887,2.049,2.049,0,0,1,.763-.563,2.586,2.586,0,0,1,1.032-.2,2.253,2.253,0,0,1,1.32.361,2.083,2.083,0,0,1,.754.959l-.929.434a1.16,1.16,0,0,0-.4-.594,1.179,1.179,0,0,0-.748-.222,1.134,1.134,0,0,0-.934.386,1.536,1.536,0,0,0-.315,1v.957a1.536,1.536,0,0,0,.315,1,1.134,1.134,0,0,0,.934.386,1.2,1.2,0,0,0,.789-.243,1.692,1.692,0,0,0,.47-.645l.856.454a2.141,2.141,0,0,1-.8,1.018A2.329,2.329,0,0,1,631.418,266.55Z" transform="translate(-552.876 -258.75)"/><path class="a" d="M641.839,266.426a.888.888,0,0,1-.681-.253,1.124,1.124,0,0,1-.288-.645h-.052a1.319,1.319,0,0,1-.568.763,1.852,1.852,0,0,1-1,.258,1.778,1.778,0,0,1-1.285-.433,1.547,1.547,0,0,1-.449-1.166,1.369,1.369,0,0,1,.583-1.207,3.008,3.008,0,0,1,1.708-.4h.969v-.454a1.033,1.033,0,0,0-.268-.763,1.14,1.14,0,0,0-.836-.268,1.335,1.335,0,0,0-.774.206,1.841,1.841,0,0,0-.506.526l-.671-.609a2.157,2.157,0,0,1,.753-.748,2.425,2.425,0,0,1,1.269-.294,2.369,2.369,0,0,1,1.6.484,1.75,1.75,0,0,1,.557,1.393v2.693h.567v.918Zm-2.269-.733a1.507,1.507,0,0,0,.867-.232.72.72,0,0,0,.34-.624v-.774h-.949q-1.167,0-1.166.722v.186a.632.632,0,0,0,.242.542A1.094,1.094,0,0,0,639.57,265.694Z" transform="translate(-556.231 -258.75)"/><path class="a" d="M648.549,265.557a1.056,1.056,0,0,1-1.186-1.166V261.11h-.836v-.918h.454a.5.5,0,0,0,.387-.124.608.608,0,0,0,.108-.4v-.939h1.011v1.466h1.125v.918h-1.125v3.528h1.042v.918Z" transform="translate(-559.773 -257.881)"/><path class="a" d="M654.031,258.685a.686.686,0,0,1-.51-.164.586.586,0,0,1-.16-.424v-.175a.586.586,0,0,1,.16-.423.686.686,0,0,1,.51-.165.667.667,0,0,1,.505.165.6.6,0,0,1,.155.423v.175a.6.6,0,0,1-.155.424A.667.667,0,0,1,654.031,258.685Zm-.567.96h1.124v5.364h-1.124Z" transform="translate(-562.46 -257.333)"/><path class="a" d="M659.821,266.55a2.553,2.553,0,0,1-1.016-.2,2.128,2.128,0,0,1-.779-.562,2.591,2.591,0,0,1-.5-.887,3.942,3.942,0,0,1,0-2.321,2.59,2.59,0,0,1,.5-.887,2.143,2.143,0,0,1,.779-.563,2.74,2.74,0,0,1,2.032,0,2.143,2.143,0,0,1,.779.563,2.6,2.6,0,0,1,.5.887,3.929,3.929,0,0,1,0,2.321,2.6,2.6,0,0,1-.5.887,2.128,2.128,0,0,1-.779.562A2.556,2.556,0,0,1,659.821,266.55Zm0-.938a1.251,1.251,0,0,0,.929-.354,1.453,1.453,0,0,0,.351-1.061v-.9a1.453,1.453,0,0,0-.351-1.061,1.394,1.394,0,0,0-1.858,0,1.451,1.451,0,0,0-.351,1.061v.9a1.451,1.451,0,0,0,.351,1.061A1.25,1.25,0,0,0,659.821,265.612Z" transform="translate(-564.03 -258.75)"/><path class="a" d="M667.454,266.426v-5.364h1.124v.887h.052a1.765,1.765,0,0,1,.532-.722,1.5,1.5,0,0,1,.975-.289,1.592,1.592,0,0,1,1.285.541,2.322,2.322,0,0,1,.459,1.543v3.4h-1.125v-3.26q0-1.258-1.011-1.258a1.654,1.654,0,0,0-.428.056,1.2,1.2,0,0,0-.376.171.844.844,0,0,0-.263.288.831.831,0,0,0-.1.413v3.59Z" transform="translate(-568 -258.75)"/></g></g></svg>